
<svg width="1191" height="419" viewBox="0 0 1191 419" fill="none" xmlns="http://www.w3.org/2000/svg">
<path d="M2 120.5L58 131.102M2 120.5L62.3429 186.5M2 120.5L138 132.776M274 418L249.875 290.43M274 418L225.314 364.75M274 418L317.875 364.805M274 418L445.963 269.258M274 418L388.5 358.268M274 418H447M274 418L417.75 388.134M930 418L813.75 395.438M930 418L852.5 372.875M930 418H775M930 418L871.696 311.5M930 418L1008.72 327.75M930 418L940.209 319.625M1189.5 120.5L1124.62 194.875M1189.5 120.5L872.312 216.188M1189.5 120.5L983.31 162.86M1189.5 120.5L973.27 141.68M620 237.5L445.963 269.258M620 237.5L534.75 221.36M620 237.5L533.5 282.625M620 237.5L417.75 388.134M620 237.5L533.5 327.75M620 237.5V282.625M620 237.5L658.75 305.188M620 237.5L674.543 269.258M620 237.5L839.875 253.375M620 237.5L871.696 311.5M620 237.5L872.312 216.188M620 237.5L698.56 221.36M620 237.5L659.28 111.18M620 237.5V119.25M449.5 205.221L483.914 164M449.5 205.221L444.926 210.766M449.5 205.221L337.625 184.041M449.5 205.221L534.75 221.36M449.5 205.221L382.801 168.725M620 1L682.703 82.5M620 1L659.28 111.18M620 1V119.25M620 1L551.957 82.5M777.119 205.221L745.406 164M777.119 205.221L983.31 162.86M777.119 205.221L872.312 162.86M777.119 205.221L698.56 221.36M777.119 205.221L690.631 151.93M483.914 164L620 119.25M483.914 164L551.957 82.5M483.914 164L350.199 151.93M483.914 164L382.801 168.725M745.406 164L757.039 162.86M745.406 164L682.703 82.5M225.75 162.86L58 131.102M225.75 162.86L249.875 290.43M225.75 162.86L153.938 210.766M225.75 162.86L281.688 173.451M225.75 162.86L138 132.776M58 131.102L153.938 210.766M249.875 290.43L153.938 210.766M249.875 290.43L176.629 311.5M249.875 290.43L225.314 364.75M249.875 290.43L361.75 311.61M249.875 290.43L317.875 364.805M249.875 290.43L444.926 210.766M249.875 290.43L337.625 184.041M249.875 290.43L281.688 173.451M153.938 210.766L176.629 311.5M153.938 210.766L62.3429 186.5M176.629 311.5L62.3429 186.5M176.629 311.5L225.314 364.75M361.75 311.61L317.875 364.805M361.75 311.61L403.338 261.188M444.926 210.766L445.963 269.258M444.926 210.766L403.338 261.188M444.926 210.766L620 119.25M337.625 184.041L281.688 173.451M281.688 173.451L274 145.052M281.688 173.451L350.199 151.93M281.688 173.451L382.801 168.725M447 327.75L445.963 269.258M447 327.75L533.5 282.625M447 327.75L388.5 358.268M445.963 269.258L403.338 261.188M445.963 269.258L534.75 221.36M445.963 269.258L533.5 282.625M445.963 269.258L388.5 358.268M388.5 358.268L417.75 388.134M620 418L576.75 372.875M620 418H533.5M620 418V372.875M620 418L697.5 372.875M620 418L658.75 305.188M620 418L813.75 395.438M620 418H775M447 418L417.75 388.134M447 418L533.5 327.75M447 418H533.5M533.5 327.75L576.75 372.875M533.5 327.75H620M533.5 327.75L620 282.625M533.5 327.75L620 372.875M576.75 372.875L533.5 418M620 327.75V282.625M620 327.75V372.875M620 282.625L658.75 305.188M775 327.75L697.5 372.875M775 327.75L658.75 305.188M775 327.75L674.543 269.258M775 327.75L813.75 395.438M775 327.75L852.5 372.875M775 327.75L871.696 311.5M697.5 372.875L658.75 305.188M697.5 372.875L813.75 395.438M658.75 305.188L674.543 269.258M813.75 395.438L852.5 372.875M813.75 395.438L775 418M852.5 372.875L871.696 311.5M1059.75 269.25L1124.62 194.875M1059.75 269.25L839.875 253.375M1059.75 269.25L1008.72 327.75M1059.75 269.25L940.209 319.625M1059.75 269.25L982.25 224.125M1124.62 194.875L982.25 224.125M1124.62 194.875L872.312 216.188M839.875 253.375L871.696 311.5M839.875 253.375L940.209 319.625M839.875 253.375L982.25 224.125M871.696 311.5L940.209 319.625M1008.72 327.75L940.209 319.625M757.039 162.86H872.312M757.039 162.86L973.27 141.68M983.31 162.86H872.312M983.31 162.86L973.27 141.68M698.56 221.36L690.631 151.93M698.56 221.36L659.28 111.18M682.703 82.5L690.631 151.93M620 119.25L551.957 82.5M274 145.052L138 132.776M274 145.052L350.199 151.93" stroke="black"/>
</svg>
